<svg width="230" height="39" viewBox="0 0 230 39" fill="none" xmlns="http://www.w3.org/2000/svg">
<mask id="path-1-outside-1_1457_91" maskUnits="userSpaceOnUse" x="51" y="4" width="179" height="32" fill="black">
<rect fill="white" x="51" y="4" width="179" height="32"/>
<path d="M52 6.28H60.288C61.7813 6.28 63.0827 6.568 64.192 7.144C65.3227 7.72 66.1973 8.53067 66.816 9.576C67.4347 10.6213 67.744 11.848 67.744 13.256C67.744 15.0907 67.232 16.616 66.208 17.832C65.184 19.048 63.7867 19.8053 62.016 20.104L68.096 28.68H65.76L59.744 20.264H53.952V28.68H52V6.28ZM60.096 18.408C61.8667 18.408 63.2533 17.9493 64.256 17.032C65.2587 16.1147 65.76 14.856 65.76 13.256C65.76 11.6773 65.2587 10.4293 64.256 9.512C63.2533 8.59467 61.8667 8.136 60.096 8.136H53.952V18.408H60.096Z"/>
<path d="M77.8015 28.936C75.8815 28.936 74.3562 28.4987 73.2255 27.624C72.1162 26.728 71.5615 25.5227 71.5615 24.008C71.5615 22.536 72.0735 21.3733 73.0975 20.52C74.1215 19.6453 75.4868 19.208 77.1935 19.208H84.4895V18.024C84.4895 16.6373 84.0202 15.528 83.0815 14.696C82.1642 13.864 80.9375 13.448 79.4015 13.448C78.1642 13.448 77.0868 13.7467 76.1695 14.344C75.2522 14.92 74.6228 15.7093 74.2815 16.712H72.3935C72.7988 15.176 73.6202 13.96 74.8575 13.064C76.1162 12.168 77.6202 11.72 79.3695 11.72C80.7348 11.72 81.9402 11.9867 82.9855 12.52C84.0522 13.032 84.8735 13.7573 85.4495 14.696C86.0468 15.6347 86.3455 16.712 86.3455 17.928V28.68H84.8095L84.6175 25.832C83.8922 26.8347 82.9428 27.6027 81.7695 28.136C80.5962 28.6693 79.2735 28.936 77.8015 28.936ZM73.4175 23.976C73.4175 24.9787 73.8122 25.7787 74.6015 26.376C75.4122 26.9733 76.5002 27.272 77.8655 27.272C79.1242 27.272 80.2548 27.0267 81.2575 26.536C82.2815 26.0453 83.0815 25.3627 83.6575 24.488C84.2335 23.6133 84.5215 22.632 84.5215 21.544V20.84H77.2575C76.1268 20.84 75.1988 21.128 74.4735 21.704C73.7695 22.28 73.4175 23.0373 73.4175 23.976Z"/>
<path d="M101.418 29.096C99.9249 29.096 98.5702 28.7867 97.3542 28.168C96.1596 27.528 95.1889 26.6533 94.4422 25.544V35.08H92.5863V12.136H94.1543L94.3462 15.432C95.0716 14.2587 96.0423 13.352 97.2583 12.712C98.4956 12.0507 99.8823 11.72 101.418 11.72C103.061 11.72 104.522 12.0933 105.802 12.84C107.104 13.5867 108.106 14.6213 108.81 15.944C109.536 17.2453 109.898 18.728 109.898 20.392C109.898 22.056 109.536 23.5493 108.81 24.872C108.106 26.1947 107.104 27.2293 105.802 27.976C104.522 28.7227 103.061 29.096 101.418 29.096ZM94.3783 20.392C94.3783 21.736 94.6662 22.9307 95.2422 23.976C95.8182 25.0213 96.6183 25.8427 97.6423 26.44C98.6876 27.016 99.8822 27.304 101.226 27.304C102.57 27.304 103.754 27.016 104.778 26.44C105.802 25.8427 106.602 25.0213 107.178 23.976C107.754 22.9307 108.042 21.736 108.042 20.392C108.042 19.0693 107.754 17.8853 107.178 16.84C106.602 15.7947 105.802 14.984 104.778 14.408C103.754 13.8107 102.57 13.512 101.226 13.512C99.8822 13.512 98.6876 13.8107 97.6423 14.408C96.6183 14.984 95.8182 15.7947 95.2422 16.84C94.6662 17.8853 94.3783 19.0693 94.3783 20.392Z"/>
<path d="M115.055 12.136H116.911V28.68H115.055V12.136ZM114.287 7.432C114.287 6.96267 114.436 6.568 114.735 6.248C115.055 5.928 115.471 5.768 115.983 5.768C116.495 5.768 116.9 5.928 117.199 6.248C117.519 6.568 117.679 6.96267 117.679 7.432C117.679 7.92267 117.519 8.328 117.199 8.648C116.9 8.968 116.495 9.128 115.983 9.128C115.471 9.128 115.055 8.968 114.735 8.648C114.436 8.328 114.287 7.92267 114.287 7.432Z"/>
<path d="M130.533 29.096C128.89 29.096 127.418 28.7227 126.117 27.976C124.837 27.2293 123.834 26.1947 123.108 24.872C122.404 23.5493 122.052 22.056 122.052 20.392C122.052 18.728 122.404 17.2453 123.108 15.944C123.834 14.6213 124.837 13.5867 126.117 12.84C127.418 12.0933 128.89 11.72 130.533 11.72C132.026 11.72 133.37 12.0293 134.564 12.648C135.78 13.2667 136.762 14.12 137.508 15.208V5H139.365V28.68H137.828L137.604 25.416C136.879 26.568 135.898 27.4747 134.66 28.136C133.444 28.776 132.069 29.096 130.533 29.096ZM123.909 20.392C123.909 21.736 124.196 22.9307 124.772 23.976C125.348 25.0213 126.149 25.8427 127.173 26.44C128.218 27.016 129.413 27.304 130.757 27.304C132.079 27.304 133.253 27.016 134.277 26.44C135.322 25.8427 136.133 25.0213 136.709 23.976C137.285 22.9307 137.573 21.736 137.573 20.392C137.573 19.0693 137.285 17.8853 136.709 16.84C136.133 15.7947 135.322 14.984 134.277 14.408C133.253 13.8107 132.079 13.512 130.757 13.512C129.413 13.512 128.218 13.8107 127.173 14.408C126.149 14.984 125.348 15.7947 124.772 16.84C124.196 17.8853 123.909 19.0693 123.909 20.392Z"/>
<path d="M146.281 6.28H153.385C155.988 6.28 158.015 6.93067 159.465 8.232C160.916 9.512 161.641 11.3147 161.641 13.64C161.641 15.9653 160.916 17.7787 159.465 19.08C158.015 20.36 155.988 21 153.385 21H148.233V28.68H146.281V6.28ZM153.353 19.208C155.444 19.208 157.023 18.7493 158.089 17.832C159.156 16.8933 159.689 15.5067 159.689 13.672C159.689 11.8373 159.156 10.4613 158.089 9.544C157.023 8.60533 155.444 8.136 153.353 8.136H148.233V19.208H153.353Z"/>
<path d="M166.43 12.136H167.998L168.19 15.848C168.745 14.5893 169.513 13.6613 170.494 13.064C171.497 12.4453 172.755 12.136 174.27 12.136H175.646V13.864H174.206C172.35 13.864 170.899 14.4613 169.854 15.656C168.809 16.8293 168.286 18.632 168.286 21.064V28.68H166.43V12.136Z"/>
<path d="M186.032 29.096C184.368 29.096 182.896 28.7333 181.616 28.008C180.336 27.2613 179.344 26.2373 178.64 24.936C177.936 23.6133 177.584 22.0987 177.584 20.392C177.584 18.7067 177.936 17.2133 178.64 15.912C179.365 14.5893 180.368 13.5653 181.648 12.84C182.928 12.0933 184.4 11.72 186.064 11.72C187.77 11.72 189.274 12.1147 190.576 12.904C191.877 13.6933 192.869 14.8027 193.552 16.232C194.234 17.6613 194.554 19.304 194.512 21.16H179.472C179.642 23.0373 180.314 24.5413 181.488 25.672C182.682 26.7813 184.197 27.336 186.032 27.336C187.376 27.336 188.56 27.0373 189.584 26.44C190.608 25.8427 191.397 25.0107 191.952 23.944L194.032 23.976C193.392 25.5547 192.357 26.8027 190.928 27.72C189.52 28.6373 187.888 29.096 186.032 29.096ZM192.688 19.528C192.474 17.6507 191.77 16.1787 190.576 15.112C189.381 14.024 187.877 13.48 186.064 13.48C184.229 13.48 182.714 14.0347 181.52 15.144C180.325 16.232 179.642 17.6933 179.472 19.528H192.688Z"/>
<path d="M205.282 29.096C203.192 29.096 201.517 28.616 200.258 27.656C199.021 26.6747 198.37 25.352 198.306 23.688H200.13C200.237 24.8613 200.728 25.7787 201.602 26.44C202.498 27.08 203.736 27.4 205.314 27.4C206.765 27.4 207.906 27.144 208.738 26.632C209.57 26.0987 209.986 25.3733 209.986 24.456C209.986 23.5813 209.57 22.8773 208.738 22.344C207.928 21.7893 206.648 21.3627 204.898 21.064C202.744 20.7013 201.154 20.136 200.13 19.368C199.128 18.5787 198.626 17.544 198.626 16.264C198.626 14.856 199.181 13.7467 200.29 12.936C201.421 12.1253 202.957 11.72 204.898 11.72C206.861 11.72 208.418 12.168 209.57 13.064C210.744 13.9387 211.394 15.1653 211.522 16.744H209.666C209.581 15.656 209.122 14.824 208.29 14.248C207.48 13.672 206.349 13.384 204.898 13.384C203.533 13.384 202.456 13.6507 201.666 14.184C200.877 14.696 200.482 15.4 200.482 16.296C200.482 17.1067 200.866 17.768 201.634 18.28C202.402 18.7707 203.704 19.1867 205.538 19.528C209.72 20.3173 211.81 21.9707 211.81 24.488C211.81 25.8747 211.213 26.9947 210.018 27.848C208.845 28.68 207.266 29.096 205.282 29.096Z"/>
<path d="M222.876 29.096C220.785 29.096 219.111 28.616 217.852 27.656C216.615 26.6747 215.964 25.352 215.9 23.688H217.724C217.831 24.8613 218.321 25.7787 219.196 26.44C220.092 27.08 221.329 27.4 222.908 27.4C224.359 27.4 225.5 27.144 226.332 26.632C227.164 26.0987 227.58 25.3733 227.58 24.456C227.58 23.5813 227.164 22.8773 226.332 22.344C225.521 21.7893 224.241 21.3627 222.492 21.064C220.337 20.7013 218.748 20.136 217.724 19.368C216.721 18.5787 216.22 17.544 216.22 16.264C216.22 14.856 216.775 13.7467 217.884 12.936C219.015 12.1253 220.551 11.72 222.492 11.72C224.455 11.72 226.012 12.168 227.164 13.064C228.337 13.9387 228.988 15.1653 229.116 16.744H227.26C227.175 15.656 226.716 14.824 225.884 14.248C225.073 13.672 223.943 13.384 222.492 13.384C221.127 13.384 220.049 13.6507 219.26 14.184C218.471 14.696 218.076 15.4 218.076 16.296C218.076 17.1067 218.46 17.768 219.228 18.28C219.996 18.7707 221.297 19.1867 223.132 19.528C227.313 20.3173 229.404 21.9707 229.404 24.488C229.404 25.8747 228.807 26.9947 227.612 27.848C226.439 28.68 224.86 29.096 222.876 29.096Z"/>
</mask>
<path d="M52 6.28H60.288C61.7813 6.28 63.0827 6.568 64.192 7.144C65.3227 7.72 66.1973 8.53067 66.816 9.576C67.4347 10.6213 67.744 11.848 67.744 13.256C67.744 15.0907 67.232 16.616 66.208 17.832C65.184 19.048 63.7867 19.8053 62.016 20.104L68.096 28.68H65.76L59.744 20.264H53.952V28.68H52V6.28ZM60.096 18.408C61.8667 18.408 63.2533 17.9493 64.256 17.032C65.2587 16.1147 65.76 14.856 65.76 13.256C65.76 11.6773 65.2587 10.4293 64.256 9.512C63.2533 8.59467 61.8667 8.136 60.096 8.136H53.952V18.408H60.096Z" fill="#2B2942"/>
<path d="M77.8015 28.936C75.8815 28.936 74.3562 28.4987 73.2255 27.624C72.1162 26.728 71.5615 25.5227 71.5615 24.008C71.5615 22.536 72.0735 21.3733 73.0975 20.52C74.1215 19.6453 75.4868 19.208 77.1935 19.208H84.4895V18.024C84.4895 16.6373 84.0202 15.528 83.0815 14.696C82.1642 13.864 80.9375 13.448 79.4015 13.448C78.1642 13.448 77.0868 13.7467 76.1695 14.344C75.2522 14.92 74.6228 15.7093 74.2815 16.712H72.3935C72.7988 15.176 73.6202 13.96 74.8575 13.064C76.1162 12.168 77.6202 11.72 79.3695 11.72C80.7348 11.72 81.9402 11.9867 82.9855 12.52C84.0522 13.032 84.8735 13.7573 85.4495 14.696C86.0468 15.6347 86.3455 16.712 86.3455 17.928V28.68H84.8095L84.6175 25.832C83.8922 26.8347 82.9428 27.6027 81.7695 28.136C80.5962 28.6693 79.2735 28.936 77.8015 28.936ZM73.4175 23.976C73.4175 24.9787 73.8122 25.7787 74.6015 26.376C75.4122 26.9733 76.5002 27.272 77.8655 27.272C79.1242 27.272 80.2548 27.0267 81.2575 26.536C82.2815 26.0453 83.0815 25.3627 83.6575 24.488C84.2335 23.6133 84.5215 22.632 84.5215 21.544V20.84H77.2575C76.1268 20.84 75.1988 21.128 74.4735 21.704C73.7695 22.28 73.4175 23.0373 73.4175 23.976Z" fill="#2B2942"/>
<path d="M101.418 29.096C99.9249 29.096 98.5702 28.7867 97.3542 28.168C96.1596 27.528 95.1889 26.6533 94.4422 25.544V35.08H92.5863V12.136H94.1543L94.3462 15.432C95.0716 14.2587 96.0423 13.352 97.2583 12.712C98.4956 12.0507 99.8823 11.72 101.418 11.72C103.061 11.72 104.522 12.0933 105.802 12.84C107.104 13.5867 108.106 14.6213 108.81 15.944C109.536 17.2453 109.898 18.728 109.898 20.392C109.898 22.056 109.536 23.5493 108.81 24.872C108.106 26.1947 107.104 27.2293 105.802 27.976C104.522 28.7227 103.061 29.096 101.418 29.096ZM94.3783 20.392C94.3783 21.736 94.6662 22.9307 95.2422 23.976C95.8182 25.0213 96.6183 25.8427 97.6423 26.44C98.6876 27.016 99.8822 27.304 101.226 27.304C102.57 27.304 103.754 27.016 104.778 26.44C105.802 25.8427 106.602 25.0213 107.178 23.976C107.754 22.9307 108.042 21.736 108.042 20.392C108.042 19.0693 107.754 17.8853 107.178 16.84C106.602 15.7947 105.802 14.984 104.778 14.408C103.754 13.8107 102.57 13.512 101.226 13.512C99.8822 13.512 98.6876 13.8107 97.6423 14.408C96.6183 14.984 95.8182 15.7947 95.2422 16.84C94.6662 17.8853 94.3783 19.0693 94.3783 20.392Z" fill="#2B2942"/>
<path d="M115.055 12.136H116.911V28.68H115.055V12.136ZM114.287 7.432C114.287 6.96267 114.436 6.568 114.735 6.248C115.055 5.928 115.471 5.768 115.983 5.768C116.495 5.768 116.9 5.928 117.199 6.248C117.519 6.568 117.679 6.96267 117.679 7.432C117.679 7.92267 117.519 8.328 117.199 8.648C116.9 8.968 116.495 9.128 115.983 9.128C115.471 9.128 115.055 8.968 114.735 8.648C114.436 8.328 114.287 7.92267 114.287 7.432Z" fill="#2B2942"/>
<path d="M130.533 29.096C128.89 29.096 127.418 28.7227 126.117 27.976C124.837 27.2293 123.834 26.1947 123.108 24.872C122.404 23.5493 122.052 22.056 122.052 20.392C122.052 18.728 122.404 17.2453 123.108 15.944C123.834 14.6213 124.837 13.5867 126.117 12.84C127.418 12.0933 128.89 11.72 130.533 11.72C132.026 11.72 133.37 12.0293 134.564 12.648C135.78 13.2667 136.762 14.12 137.508 15.208V5H139.365V28.68H137.828L137.604 25.416C136.879 26.568 135.898 27.4747 134.66 28.136C133.444 28.776 132.069 29.096 130.533 29.096ZM123.909 20.392C123.909 21.736 124.196 22.9307 124.772 23.976C125.348 25.0213 126.149 25.8427 127.173 26.44C128.218 27.016 129.413 27.304 130.757 27.304C132.079 27.304 133.253 27.016 134.277 26.44C135.322 25.8427 136.133 25.0213 136.709 23.976C137.285 22.9307 137.573 21.736 137.573 20.392C137.573 19.0693 137.285 17.8853 136.709 16.84C136.133 15.7947 135.322 14.984 134.277 14.408C133.253 13.8107 132.079 13.512 130.757 13.512C129.413 13.512 128.218 13.8107 127.173 14.408C126.149 14.984 125.348 15.7947 124.772 16.84C124.196 17.8853 123.909 19.0693 123.909 20.392Z" fill="#2B2942"/>
<path d="M146.281 6.28H153.385C155.988 6.28 158.015 6.93067 159.465 8.232C160.916 9.512 161.641 11.3147 161.641 13.64C161.641 15.9653 160.916 17.7787 159.465 19.08C158.015 20.36 155.988 21 153.385 21H148.233V28.68H146.281V6.28ZM153.353 19.208C155.444 19.208 157.023 18.7493 158.089 17.832C159.156 16.8933 159.689 15.5067 159.689 13.672C159.689 11.8373 159.156 10.4613 158.089 9.544C157.023 8.60533 155.444 8.136 153.353 8.136H148.233V19.208H153.353Z" fill="#2B2942"/>
<path d="M166.43 12.136H167.998L168.19 15.848C168.745 14.5893 169.513 13.6613 170.494 13.064C171.497 12.4453 172.755 12.136 174.27 12.136H175.646V13.864H174.206C172.35 13.864 170.899 14.4613 169.854 15.656C168.809 16.8293 168.286 18.632 168.286 21.064V28.68H166.43V12.136Z" fill="#2B2942"/>
<path d="M186.032 29.096C184.368 29.096 182.896 28.7333 181.616 28.008C180.336 27.2613 179.344 26.2373 178.64 24.936C177.936 23.6133 177.584 22.0987 177.584 20.392C177.584 18.7067 177.936 17.2133 178.64 15.912C179.365 14.5893 180.368 13.5653 181.648 12.84C182.928 12.0933 184.4 11.72 186.064 11.72C187.77 11.72 189.274 12.1147 190.576 12.904C191.877 13.6933 192.869 14.8027 193.552 16.232C194.234 17.6613 194.554 19.304 194.512 21.16H179.472C179.642 23.0373 180.314 24.5413 181.488 25.672C182.682 26.7813 184.197 27.336 186.032 27.336C187.376 27.336 188.56 27.0373 189.584 26.44C190.608 25.8427 191.397 25.0107 191.952 23.944L194.032 23.976C193.392 25.5547 192.357 26.8027 190.928 27.72C189.52 28.6373 187.888 29.096 186.032 29.096ZM192.688 19.528C192.474 17.6507 191.77 16.1787 190.576 15.112C189.381 14.024 187.877 13.48 186.064 13.48C184.229 13.48 182.714 14.0347 181.52 15.144C180.325 16.232 179.642 17.6933 179.472 19.528H192.688Z" fill="#2B2942"/>
<path d="M205.282 29.096C203.192 29.096 201.517 28.616 200.258 27.656C199.021 26.6747 198.37 25.352 198.306 23.688H200.13C200.237 24.8613 200.728 25.7787 201.602 26.44C202.498 27.08 203.736 27.4 205.314 27.4C206.765 27.4 207.906 27.144 208.738 26.632C209.57 26.0987 209.986 25.3733 209.986 24.456C209.986 23.5813 209.57 22.8773 208.738 22.344C207.928 21.7893 206.648 21.3627 204.898 21.064C202.744 20.7013 201.154 20.136 200.13 19.368C199.128 18.5787 198.626 17.544 198.626 16.264C198.626 14.856 199.181 13.7467 200.29 12.936C201.421 12.1253 202.957 11.72 204.898 11.72C206.861 11.72 208.418 12.168 209.57 13.064C210.744 13.9387 211.394 15.1653 211.522 16.744H209.666C209.581 15.656 209.122 14.824 208.29 14.248C207.48 13.672 206.349 13.384 204.898 13.384C203.533 13.384 202.456 13.6507 201.666 14.184C200.877 14.696 200.482 15.4 200.482 16.296C200.482 17.1067 200.866 17.768 201.634 18.28C202.402 18.7707 203.704 19.1867 205.538 19.528C209.72 20.3173 211.81 21.9707 211.81 24.488C211.81 25.8747 211.213 26.9947 210.018 27.848C208.845 28.68 207.266 29.096 205.282 29.096Z" fill="#2B2942"/>
<path d="M222.876 29.096C220.785 29.096 219.111 28.616 217.852 27.656C216.615 26.6747 215.964 25.352 215.9 23.688H217.724C217.831 24.8613 218.321 25.7787 219.196 26.44C220.092 27.08 221.329 27.4 222.908 27.4C224.359 27.4 225.5 27.144 226.332 26.632C227.164 26.0987 227.58 25.3733 227.58 24.456C227.58 23.5813 227.164 22.8773 226.332 22.344C225.521 21.7893 224.241 21.3627 222.492 21.064C220.337 20.7013 218.748 20.136 217.724 19.368C216.721 18.5787 216.22 17.544 216.22 16.264C216.22 14.856 216.775 13.7467 217.884 12.936C219.015 12.1253 220.551 11.72 222.492 11.72C224.455 11.72 226.012 12.168 227.164 13.064C228.337 13.9387 228.988 15.1653 229.116 16.744H227.26C227.175 15.656 226.716 14.824 225.884 14.248C225.073 13.672 223.943 13.384 222.492 13.384C221.127 13.384 220.049 13.6507 219.26 14.184C218.471 14.696 218.076 15.4 218.076 16.296C218.076 17.1067 218.46 17.768 219.228 18.28C219.996 18.7707 221.297 19.1867 223.132 19.528C227.313 20.3173 229.404 21.9707 229.404 24.488C229.404 25.8747 228.807 26.9947 227.612 27.848C226.439 28.68 224.86 29.096 222.876 29.096Z" fill="#2B2942"/>
<path d="M52 6.28H60.288C61.7813 6.28 63.0827 6.568 64.192 7.144C65.3227 7.72 66.1973 8.53067 66.816 9.576C67.4347 10.6213 67.744 11.848 67.744 13.256C67.744 15.0907 67.232 16.616 66.208 17.832C65.184 19.048 63.7867 19.8053 62.016 20.104L68.096 28.68H65.76L59.744 20.264H53.952V28.68H52V6.28ZM60.096 18.408C61.8667 18.408 63.2533 17.9493 64.256 17.032C65.2587 16.1147 65.76 14.856 65.76 13.256C65.76 11.6773 65.2587 10.4293 64.256 9.512C63.2533 8.59467 61.8667 8.136 60.096 8.136H53.952V18.408H60.096Z" stroke="#2B2942" stroke-width="0.6" mask="url(#path-1-outside-1_1457_91)"/>
<path d="M77.8015 28.936C75.8815 28.936 74.3562 28.4987 73.2255 27.624C72.1162 26.728 71.5615 25.5227 71.5615 24.008C71.5615 22.536 72.0735 21.3733 73.0975 20.52C74.1215 19.6453 75.4868 19.208 77.1935 19.208H84.4895V18.024C84.4895 16.6373 84.0202 15.528 83.0815 14.696C82.1642 13.864 80.9375 13.448 79.4015 13.448C78.1642 13.448 77.0868 13.7467 76.1695 14.344C75.2522 14.92 74.6228 15.7093 74.2815 16.712H72.3935C72.7988 15.176 73.6202 13.96 74.8575 13.064C76.1162 12.168 77.6202 11.72 79.3695 11.72C80.7348 11.72 81.9402 11.9867 82.9855 12.52C84.0522 13.032 84.8735 13.7573 85.4495 14.696C86.0468 15.6347 86.3455 16.712 86.3455 17.928V28.68H84.8095L84.6175 25.832C83.8922 26.8347 82.9428 27.6027 81.7695 28.136C80.5962 28.6693 79.2735 28.936 77.8015 28.936ZM73.4175 23.976C73.4175 24.9787 73.8122 25.7787 74.6015 26.376C75.4122 26.9733 76.5002 27.272 77.8655 27.272C79.1242 27.272 80.2548 27.0267 81.2575 26.536C82.2815 26.0453 83.0815 25.3627 83.6575 24.488C84.2335 23.6133 84.5215 22.632 84.5215 21.544V20.84H77.2575C76.1268 20.84 75.1988 21.128 74.4735 21.704C73.7695 22.28 73.4175 23.0373 73.4175 23.976Z" stroke="#2B2942" stroke-width="0.6" mask="url(#path-1-outside-1_1457_91)"/>
<path d="M101.418 29.096C99.9249 29.096 98.5702 28.7867 97.3542 28.168C96.1596 27.528 95.1889 26.6533 94.4422 25.544V35.08H92.5863V12.136H94.1543L94.3462 15.432C95.0716 14.2587 96.0423 13.352 97.2583 12.712C98.4956 12.0507 99.8823 11.72 101.418 11.72C103.061 11.72 104.522 12.0933 105.802 12.84C107.104 13.5867 108.106 14.6213 108.81 15.944C109.536 17.2453 109.898 18.728 109.898 20.392C109.898 22.056 109.536 23.5493 108.81 24.872C108.106 26.1947 107.104 27.2293 105.802 27.976C104.522 28.7227 103.061 29.096 101.418 29.096ZM94.3783 20.392C94.3783 21.736 94.6662 22.9307 95.2422 23.976C95.8182 25.0213 96.6183 25.8427 97.6423 26.44C98.6876 27.016 99.8822 27.304 101.226 27.304C102.57 27.304 103.754 27.016 104.778 26.44C105.802 25.8427 106.602 25.0213 107.178 23.976C107.754 22.9307 108.042 21.736 108.042 20.392C108.042 19.0693 107.754 17.8853 107.178 16.84C106.602 15.7947 105.802 14.984 104.778 14.408C103.754 13.8107 102.57 13.512 101.226 13.512C99.8822 13.512 98.6876 13.8107 97.6423 14.408C96.6183 14.984 95.8182 15.7947 95.2422 16.84C94.6662 17.8853 94.3783 19.0693 94.3783 20.392Z" stroke="#2B2942" stroke-width="0.6" mask="url(#path-1-outside-1_1457_91)"/>
<path d="M115.055 12.136H116.911V28.68H115.055V12.136ZM114.287 7.432C114.287 6.96267 114.436 6.568 114.735 6.248C115.055 5.928 115.471 5.768 115.983 5.768C116.495 5.768 116.9 5.928 117.199 6.248C117.519 6.568 117.679 6.96267 117.679 7.432C117.679 7.92267 117.519 8.328 117.199 8.648C116.9 8.968 116.495 9.128 115.983 9.128C115.471 9.128 115.055 8.968 114.735 8.648C114.436 8.328 114.287 7.92267 114.287 7.432Z" stroke="#2B2942" stroke-width="0.6" mask="url(#path-1-outside-1_1457_91)"/>
<path d="M130.533 29.096C128.89 29.096 127.418 28.7227 126.117 27.976C124.837 27.2293 123.834 26.1947 123.108 24.872C122.404 23.5493 122.052 22.056 122.052 20.392C122.052 18.728 122.404 17.2453 123.108 15.944C123.834 14.6213 124.837 13.5867 126.117 12.84C127.418 12.0933 128.89 11.72 130.533 11.72C132.026 11.72 133.37 12.0293 134.564 12.648C135.78 13.2667 136.762 14.12 137.508 15.208V5H139.365V28.68H137.828L137.604 25.416C136.879 26.568 135.898 27.4747 134.66 28.136C133.444 28.776 132.069 29.096 130.533 29.096ZM123.909 20.392C123.909 21.736 124.196 22.9307 124.772 23.976C125.348 25.0213 126.149 25.8427 127.173 26.44C128.218 27.016 129.413 27.304 130.757 27.304C132.079 27.304 133.253 27.016 134.277 26.44C135.322 25.8427 136.133 25.0213 136.709 23.976C137.285 22.9307 137.573 21.736 137.573 20.392C137.573 19.0693 137.285 17.8853 136.709 16.84C136.133 15.7947 135.322 14.984 134.277 14.408C133.253 13.8107 132.079 13.512 130.757 13.512C129.413 13.512 128.218 13.8107 127.173 14.408C126.149 14.984 125.348 15.7947 124.772 16.84C124.196 17.8853 123.909 19.0693 123.909 20.392Z" stroke="#2B2942" stroke-width="0.6" mask="url(#path-1-outside-1_1457_91)"/>
<path d="M146.281 6.28H153.385C155.988 6.28 158.015 6.93067 159.465 8.232C160.916 9.512 161.641 11.3147 161.641 13.64C161.641 15.9653 160.916 17.7787 159.465 19.08C158.015 20.36 155.988 21 153.385 21H148.233V28.68H146.281V6.28ZM153.353 19.208C155.444 19.208 157.023 18.7493 158.089 17.832C159.156 16.8933 159.689 15.5067 159.689 13.672C159.689 11.8373 159.156 10.4613 158.089 9.544C157.023 8.60533 155.444 8.136 153.353 8.136H148.233V19.208H153.353Z" stroke="#2B2942" stroke-width="0.6" mask="url(#path-1-outside-1_1457_91)"/>
<path d="M166.43 12.136H167.998L168.19 15.848C168.745 14.5893 169.513 13.6613 170.494 13.064C171.497 12.4453 172.755 12.136 174.27 12.136H175.646V13.864H174.206C172.35 13.864 170.899 14.4613 169.854 15.656C168.809 16.8293 168.286 18.632 168.286 21.064V28.68H166.43V12.136Z" stroke="#2B2942" stroke-width="0.6" mask="url(#path-1-outside-1_1457_91)"/>
<path d="M186.032 29.096C184.368 29.096 182.896 28.7333 181.616 28.008C180.336 27.2613 179.344 26.2373 178.64 24.936C177.936 23.6133 177.584 22.0987 177.584 20.392C177.584 18.7067 177.936 17.2133 178.64 15.912C179.365 14.5893 180.368 13.5653 181.648 12.84C182.928 12.0933 184.4 11.72 186.064 11.72C187.77 11.72 189.274 12.1147 190.576 12.904C191.877 13.6933 192.869 14.8027 193.552 16.232C194.234 17.6613 194.554 19.304 194.512 21.16H179.472C179.642 23.0373 180.314 24.5413 181.488 25.672C182.682 26.7813 184.197 27.336 186.032 27.336C187.376 27.336 188.56 27.0373 189.584 26.44C190.608 25.8427 191.397 25.0107 191.952 23.944L194.032 23.976C193.392 25.5547 192.357 26.8027 190.928 27.72C189.52 28.6373 187.888 29.096 186.032 29.096ZM192.688 19.528C192.474 17.6507 191.77 16.1787 190.576 15.112C189.381 14.024 187.877 13.48 186.064 13.48C184.229 13.48 182.714 14.0347 181.52 15.144C180.325 16.232 179.642 17.6933 179.472 19.528H192.688Z" stroke="#2B2942" stroke-width="0.6" mask="url(#path-1-outside-1_1457_91)"/>
<path d="M205.282 29.096C203.192 29.096 201.517 28.616 200.258 27.656C199.021 26.6747 198.37 25.352 198.306 23.688H200.13C200.237 24.8613 200.728 25.7787 201.602 26.44C202.498 27.08 203.736 27.4 205.314 27.4C206.765 27.4 207.906 27.144 208.738 26.632C209.57 26.0987 209.986 25.3733 209.986 24.456C209.986 23.5813 209.57 22.8773 208.738 22.344C207.928 21.7893 206.648 21.3627 204.898 21.064C202.744 20.7013 201.154 20.136 200.13 19.368C199.128 18.5787 198.626 17.544 198.626 16.264C198.626 14.856 199.181 13.7467 200.29 12.936C201.421 12.1253 202.957 11.72 204.898 11.72C206.861 11.72 208.418 12.168 209.57 13.064C210.744 13.9387 211.394 15.1653 211.522 16.744H209.666C209.581 15.656 209.122 14.824 208.29 14.248C207.48 13.672 206.349 13.384 204.898 13.384C203.533 13.384 202.456 13.6507 201.666 14.184C200.877 14.696 200.482 15.4 200.482 16.296C200.482 17.1067 200.866 17.768 201.634 18.28C202.402 18.7707 203.704 19.1867 205.538 19.528C209.72 20.3173 211.81 21.9707 211.81 24.488C211.81 25.8747 211.213 26.9947 210.018 27.848C208.845 28.68 207.266 29.096 205.282 29.096Z" stroke="#2B2942" stroke-width="0.6" mask="url(#path-1-outside-1_1457_91)"/>
<path d="M222.876 29.096C220.785 29.096 219.111 28.616 217.852 27.656C216.615 26.6747 215.964 25.352 215.9 23.688H217.724C217.831 24.8613 218.321 25.7787 219.196 26.44C220.092 27.08 221.329 27.4 222.908 27.4C224.359 27.4 225.5 27.144 226.332 26.632C227.164 26.0987 227.58 25.3733 227.58 24.456C227.58 23.5813 227.164 22.8773 226.332 22.344C225.521 21.7893 224.241 21.3627 222.492 21.064C220.337 20.7013 218.748 20.136 217.724 19.368C216.721 18.5787 216.22 17.544 216.22 16.264C216.22 14.856 216.775 13.7467 217.884 12.936C219.015 12.1253 220.551 11.72 222.492 11.72C224.455 11.72 226.012 12.168 227.164 13.064C228.337 13.9387 228.988 15.1653 229.116 16.744H227.26C227.175 15.656 226.716 14.824 225.884 14.248C225.073 13.672 223.943 13.384 222.492 13.384C221.127 13.384 220.049 13.6507 219.26 14.184C218.471 14.696 218.076 15.4 218.076 16.296C218.076 17.1067 218.46 17.768 219.228 18.28C219.996 18.7707 221.297 19.1867 223.132 19.528C227.313 20.3173 229.404 21.9707 229.404 24.488C229.404 25.8747 228.807 26.9947 227.612 27.848C226.439 28.68 224.86 29.096 222.876 29.096Z" stroke="#2B2942" stroke-width="0.6" mask="url(#path-1-outside-1_1457_91)"/>
<path d="M3.83159 13.5558L3.91553 13.6101L3.83159 13.5558L1.2102 17.603C0.0850271 19.3402 1.22101 21.6495 3.28385 21.8184L5.10662 21.9676C5.10835 21.9678 5.11009 21.9679 5.11182 21.9681C5.09467 23.582 5.6903 25.1848 6.90479 26.3993L6.9755 26.3286L6.90479 26.3993L12.8088 32.3034C14.0284 33.5229 15.6395 34.1184 17.2601 34.0961C17.2606 34.105 17.2612 34.114 17.262 34.123L17.4112 35.9457C17.5801 38.0086 19.8894 39.1446 21.6266 38.0194L25.6737 35.398C26.8274 34.6509 27.6509 33.4899 27.9747 32.1542L29.5742 25.5574C35.1149 20.8133 38.3256 13.8996 38.3081 6.71398L38.3047 5.32528C38.2988 2.86668 36.3415 0.909406 33.8829 0.903445L32.4943 0.900071C25.2942 0.882605 18.3671 4.10627 13.6221 9.66743L7.07542 11.2548C5.73968 11.5787 4.5788 12.4022 3.83159 13.5558ZM20.5622 36.3762L20.6166 36.4601L20.5622 36.3762C20.0678 36.6964 19.4106 36.3731 19.3624 35.786L19.2132 33.9633C19.2132 33.9633 19.2132 33.9632 19.2132 33.9632C19.2079 33.8985 19.1964 33.8356 19.1793 33.7753C19.9704 33.5161 20.7255 33.1004 21.3958 32.529L27.0348 27.7222L26.072 31.6928C25.8662 32.5419 25.3427 33.2798 24.6095 33.7548L20.5622 36.3762ZM11.4574 12.2069L6.67923 17.8123C6.10435 18.4867 5.68707 19.247 5.42822 20.0433C5.37592 20.03 5.32186 20.0209 5.26641 20.0164L5.26639 20.0164L3.44364 19.8671C2.85651 19.819 2.53321 19.1617 2.85344 18.6674L2.76951 18.613L2.85344 18.6674L5.47483 14.6201C5.94979 13.8868 6.68774 13.3634 7.53678 13.1575L11.4574 12.2069ZM22.8267 10.951L22.756 10.8803L22.8267 10.951C24.4542 9.32341 26.9584 9.34493 28.4216 10.808C29.8847 12.2711 29.9062 14.7753 28.2786 16.4029L28.3493 16.4736L28.2786 16.4029C26.651 18.0305 24.1468 18.009 22.6837 16.5459C21.2206 15.0828 21.1991 12.5786 22.8267 10.951ZM33.8781 2.86125C35.2592 2.8646 36.3436 3.94899 36.3469 5.33002L36.3503 6.71868C36.3663 13.336 33.3997 19.724 28.2617 24.1037L20.1258 31.039C18.3307 32.5692 15.7531 32.4788 14.1932 30.919L8.28916 25.0149C6.7294 23.4551 6.639 20.8776 8.16913 19.0825L15.1045 10.9464C19.4842 5.8085 25.8722 2.84183 32.4895 2.85788L33.8781 2.86125ZM21.2993 17.9303C23.5717 20.2026 27.3163 20.134 29.6629 17.7873C32.0097 15.4406 32.0783 11.696 29.8059 9.42366C27.5336 7.1513 23.789 7.21992 21.4423 9.56657C19.0956 11.9133 19.027 15.6579 21.2993 17.9303Z" fill="#8161FF" stroke="#8161FF" stroke-width="0.2"/>
</svg>
